<svg width="21" height="22" viewBox="0 0 21 22" fill="none" xmlns="http://www.w3.org/2000/svg">
    <path d="M9.79687 16.2083H11.3594V9.95833H9.79687V16.2083ZM10.5 8.03125C10.7431 8.03125 10.947 7.95313 11.112 7.79688C11.2769 7.64063 11.3594 7.44097 11.3594 7.19792C11.3594 6.95486 11.2769 6.74653 11.112 6.57292C10.947 6.39931 10.7431 6.3125 10.5 6.3125C10.2569 6.3125 10.053 6.39931 9.88802 6.57292C9.72309 6.74653 9.64062 6.95486 9.64062 7.19792C9.64062 7.44097 9.72309 7.64063 9.88802 7.79688C10.053 7.95313 10.2569 8.03125 10.5 8.03125ZM10.5 21.4167C9.07639 21.4167 7.7309 21.1432 6.46354 20.5964C5.19618 20.0495 4.08941 19.303 3.14323 18.3568C2.19705 17.4106 1.45052 16.3038 0.903645 15.0365C0.35677 13.7691 0.0833321 12.4149 0.0833321 10.974C0.0833321 9.55035 0.35677 8.20486 0.903645 6.9375C1.45052 5.67014 2.19705 4.56771 3.14323 3.63021C4.08941 2.69271 5.19618 1.95052 6.46354 1.40365C7.7309 0.856771 9.08507 0.583334 10.526 0.583334C11.9497 0.583334 13.2951 0.856771 14.5625 1.40365C15.8299 1.95052 16.9323 2.69271 17.8698 3.63021C18.8073 4.56771 19.5495 5.67014 20.0964 6.9375C20.6432 8.20486 20.9167 9.55903 20.9167 11C20.9167 12.4236 20.6432 13.7691 20.0964 15.0365C19.5495 16.3038 18.8073 17.4106 17.8698 18.3568C16.9323 19.303 15.8299 20.0495 14.5625 20.5964C13.2951 21.1432 11.941 21.4167 10.5 21.4167ZM10.526 19.8542C12.974 19.8542 15.0573 18.9905 16.776 17.263C18.4948 15.5356 19.3542 13.4392 19.3542 10.974C19.3542 8.52604 18.4948 6.44271 16.776 4.72396C15.0573 3.00521 12.9653 2.14583 10.5 2.14583C8.05208 2.14583 5.96441 3.00521 4.23698 4.72396C2.50955 6.44271 1.64583 8.53472 1.64583 11C1.64583 13.4479 2.50955 15.5356 4.23698 17.263C5.96441 18.9905 8.06076 19.8542 10.526 19.8542Z"
          fill="white"/>
</svg>
