<svg width="23" height="18" viewBox="0 0 23 18" fill="none" xmlns="http://www.w3.org/2000/svg">
    <path d="M5.45833 13.6875C6.39583 13.6875 7.30295 13.796 8.17969 14.013C9.05642 14.23 9.92014 14.5556 10.7708 14.9896V3.86979C9.98958 3.34896 9.14323 2.94531 8.23177 2.65886C7.32031 2.3724 6.39583 2.22917 5.45833 2.22917C4.79861 2.22917 4.15191 2.31163 3.51823 2.47656C2.88455 2.64149 2.24653 2.84549 1.60417 3.08854V14.3906C2.14236 14.1476 2.75434 13.9696 3.44011 13.8568C4.12587 13.7439 4.79861 13.6875 5.45833 13.6875ZM12.3333 14.9896C13.2014 14.5556 14.0521 14.23 14.8854 14.013C15.7188 13.796 16.6042 13.6875 17.5417 13.6875C18.2014 13.6875 18.8828 13.7396 19.5859 13.8438C20.2891 13.9479 20.8924 14.0868 21.3958 14.2604V3.08854C20.8056 2.7934 20.1806 2.57639 19.5208 2.4375C18.8611 2.29861 18.2014 2.22917 17.5417 2.22917C16.6042 2.22917 15.697 2.3724 14.8203 2.65886C13.9436 2.94531 13.1146 3.34896 12.3333 3.86979V14.9896ZM11.5521 17.3333C10.6667 16.6736 9.70313 16.1658 8.66146 15.8099C7.61979 15.454 6.55208 15.276 5.45833 15.276C4.81597 15.276 4.19097 15.3542 3.58333 15.5104C2.9757 15.6667 2.36806 15.8576 1.76042 16.0833C1.36111 16.2743 0.974828 16.2483 0.601564 16.0052C0.2283 15.7622 0.0416679 15.4149 0.0416679 14.9635V2.90625C0.0416679 2.64583 0.102432 2.40712 0.22396 2.19011C0.345487 1.97309 0.527779 1.80382 0.770835 1.68229C1.5 1.33507 2.25955 1.07899 3.04948 0.914064C3.83941 0.749133 4.64236 0.666668 5.45833 0.666668C6.55208 0.666668 7.61545 0.814238 8.64844 1.10938C9.68142 1.40452 10.6493 1.8559 11.5521 2.46354C12.4375 1.8559 13.388 1.40452 14.4036 1.10938C15.4193 0.814238 16.4653 0.666668 17.5417 0.666668C18.3576 0.666668 19.1562 0.749133 19.9375 0.914064C20.7188 1.07899 21.474 1.33507 22.2031 1.68229C22.4462 1.80382 22.6328 1.97309 22.763 2.19011C22.8932 2.40712 22.9583 2.64583 22.9583 2.90625V14.9635C22.9583 15.4497 22.763 15.8186 22.3724 16.0703C21.9818 16.3221 21.5955 16.3264 21.2135 16.0833C20.6233 15.8403 20.0243 15.645 19.4167 15.4974C18.809 15.3498 18.184 15.276 17.5417 15.276C16.4479 15.276 15.3976 15.4583 14.3906 15.8229C13.3837 16.1875 12.4375 16.691 11.5521 17.3333Z"
          fill="white"/>
</svg>
