<svg width="17" height="17" viewBox="0 0 17 17" fill="none" xmlns="http://www.w3.org/2000/svg">
    <path d="M8.5 7.97396C7.35417 7.97396 6.41667 7.60938 5.6875 6.88021C4.95833 6.15104 4.59375 5.21355 4.59375 4.06771C4.59375 2.92188 4.95833 1.98438 5.6875 1.25521C6.41667 0.526044 7.35417 0.161461 8.5 0.161461C9.64583 0.161461 10.5833 0.526044 11.3125 1.25521C12.0417 1.98438 12.4063 2.92188 12.4063 4.06771C12.4063 5.21355 12.0417 6.15104 11.3125 6.88021C10.5833 7.60938 9.64583 7.97396 8.5 7.97396ZM0.166668 16.3333V13.8854C0.166668 13.2257 0.331598 12.6615 0.661459 12.1927C0.991321 11.724 1.41667 11.3681 1.9375 11.125C3.1007 10.6042 4.21615 10.2135 5.28386 9.95313C6.35156 9.69271 7.42361 9.5625 8.5 9.5625C9.57639 9.5625 10.6441 9.69705 11.7031 9.96615C12.7622 10.2352 13.8733 10.6215 15.0365 11.125C15.5747 11.3681 16.0087 11.724 16.3385 12.1927C16.6684 12.6615 16.8333 13.2257 16.8333 13.8854V16.3333H0.166668ZM1.72917 14.7708H15.2708V13.8854C15.2708 13.6076 15.1884 13.3429 15.0234 13.0911C14.8585 12.8394 14.6545 12.6528 14.4115 12.5313C13.3003 11.9931 12.2847 11.6241 11.3646 11.4245C10.4444 11.2248 9.48958 11.125 8.5 11.125C7.51042 11.125 6.54688 11.2248 5.60938 11.4245C4.67188 11.6241 3.65625 11.9931 2.5625 12.5313C2.31945 12.6528 2.11979 12.8394 1.96354 13.0911C1.80729 13.3429 1.72917 13.6076 1.72917 13.8854V14.7708ZM8.5 6.41146C9.17708 6.41146 9.73698 6.19011 10.1797 5.7474C10.6224 5.30469 10.8438 4.74479 10.8438 4.06771C10.8438 3.39063 10.6224 2.83073 10.1797 2.38802C9.73698 1.94532 9.17708 1.72396 8.5 1.72396C7.82292 1.72396 7.26302 1.94532 6.82031 2.38802C6.3776 2.83073 6.15625 3.39063 6.15625 4.06771C6.15625 4.74479 6.3776 5.30469 6.82031 5.7474C7.26302 6.19011 7.82292 6.41146 8.5 6.41146Z"
          fill="white"/>
</svg>
